<?xml version="1.0" encoding="utf-8"?>
<!-- Generator: Adobe Illustrator 23.0.1, SVG Export Plug-In . SVG Version: 6.00 Build 0)  -->
<svg version="1.1" id="Layer_1" xmlns="http://www.w3.org/2000/svg" xmlns:xlink="http://www.w3.org/1999/xlink" x="0px" y="0px"
	 viewBox="0 0 580 178.8" style="enable-background:new 0 0 580 178.8;" xml:space="preserve">
<style type="text/css">
	.st0{fill:#07C457;}
</style>
<path class="st0" d="M238.7,63.3c-2.1-5.5-6.4-9.8-12-12.2c-1.2-0.5-1.7-0.8-1.9-0.9c0-0.3,0.1-0.9,0.4-2.2c1.3-5,0.3-9.5-2.8-12.6
	c-3.4-3.5-6.8-6.7-10.9-8.7c-8.7-4.1-17.2-5.7-25.3-4.9c-0.8,0.1-1.7,0.1-2.6,0.2c-2.9,0.1-6.2,0.3-9.5,2.2
	c-1.9,1.1-4.1,1.8-6.4,2.6c-0.4,0.1-0.8,0.3-1.2,0.4l0-0.1c0-1.9,0.1-3.9-0.2-6c-0.3-2.2-0.9-4-1.9-5.2c-3.4-4.3-7.9-7.4-14.6-10.3
	c-5-2.1-10.2-2.9-15.3-3.6c-0.9-0.1-1.8-0.2-2.7-0.4c-4.6-0.7-9.5-0.1-14.9,1.7c-4.5,1.5-8.6,3.9-12.6,6.2l-1.1,0.6
	c-1.7,1-2.9,1.1-4.5,0.6c-4.8-1.7-9.5-1.6-15.1-1c-5.5,0.6-10.3,2.6-15.1,4.5l-0.4,0.2c-7,2.8-12.3,7.2-15.9,12.8
	c-4.3,6.8-4.5,13.3-0.5,19c2.2,3.1,4.9,5.7,7.5,8.2c0.6,0.5,1.1,1.1,1.7,1.6c-8.3-1.7-15.9-2.2-23.2-1.6c-5.7,0.4-11.2,1.6-16,3.3
	C15,60.2,9.3,65.4,5.1,73.3c-1.3,2.3-2.2,4.9-2.7,7.3C0.5,89.7,7.5,95,9.7,96.7c1.6,1.2,1.9,1.7,2,1.8c0,0.1,0,0.6-0.7,2.3
	c-0.9,2.2-2,5.5-2,9.1c-0.1,5.5,2.8,9.6,5.9,13.7c4,5.1,9.3,8.6,16.8,11c12.9,4.1,25.7,2.5,39.9-5.1c-4.4,5.2-9.4,9.9-15.1,14.1
	c-2.2,1.7-4.7,3.2-7,4.7c-1.7,1.1-3.4,2.2-5,3.3c-0.8,0.5-1.7,1-2.7,1.5c-2.3,1.1-5.1,2.5-6.8,5.5c-0.3,0.1-0.7,0.3-1,0.5
	c-0.1,0.1-0.2,0.2-0.4,0.2c-1,0.6-2.6,1.7-2.5,3.6c0.1,1.7,1.2,3.3,2.3,4.2c1.4,1.2,2.9,2.4,4.3,3.6c1.8,1.4,3.6,2.9,5.3,4.4
	c2.6,2.3,5.4,3.4,8.4,3.4c1.6,0,3.2-0.3,4.8-0.9c6.8-2.6,12.1-7.1,17.2-11.5c0.9-0.8,1.8-1.6,2.8-2.3c5.4-4.5,8.9-10.2,11.6-15.4
	c4.8,5.5,11.1,7.9,17.3,9.7c7.7,2.2,15.5,1.8,23,1.4c1.4-0.1,2.8-0.1,4.1-0.2c6.3-0.3,11.8-3,16.3-8c2.4-2.7,5.4-3.7,9.6-3.1
	c7.4,1.1,14.5,0.3,21.1-2.2c7.5-2.9,16.9-7.5,22.9-17.3c6-9.9,2.8-16.7-0.9-20.6c-3.1-3.2-6.7-6.9-10.8-9.8
	c-0.3-0.2-0.5-0.4-0.8-0.5c4,0.5,8.1,0.8,12.7,0.7c5.8,0.7,12.7-1.7,19.4-4.1l0.4-0.1c7.8-2.7,13.2-7.2,16-13.3
	C240.6,75.3,240.9,68.9,238.7,63.3z M115.3,151l-2.1-0.1c-5.1-0.2-9.8-2.1-13.4-5.3c-3.9-3.4-5.4-7.9-4.4-13.4
	c1.5-8.6,4-16.6,7.7-24.5c2.9-6.3,6.7-13.5,12.8-19.2c0.2,5.8,2.3,10.9,4.3,15.9c0.4,1,0.8,2.1,1.2,3.1c1,2.7,2.7,5.1,4.4,7.4
	c0.5,0.7,1,1.3,1.4,2c0.7,1.1,1.8,1.5,2.5,1.8c0.2,0.1,0.3,0.1,0.5,0.2c0.8,0.5,1.8,0.4,2.6,0c0.8-0.5,1.3-1.3,1.3-2.3
	c0-0.2,0-0.4,0.1-0.6c0.1-0.8,0.2-1.8-0.2-3c-0.6-1.6-1.3-3.1-1.9-4.6c-1-2.3-2-4.6-2.8-6.8c-1.5-4.5-2.9-9.4-4.4-15.9
	c0-0.1-0.1-0.3-0.1-0.4c0.1,0,0.2,0,0.3,0.1c1.8,0.3,3.6,1,5.5,1.8c0.6,0.2,1.2,0.5,1.8,0.7c1.8,0.7,3.6,1.4,5.4,2.1
	c3,1.2,6.2,2.4,9.3,3.5c4.8,1.7,9.8,3.1,14.6,4.6l1.2,0.4c1.5,0.5,3.1,0.8,4.6,1.2c2.3,0.6,4.5,1.1,6.6,1.9
	c8.4,3,13.8,6.7,17.8,12.1c2.7,3.8,1.7,8.8-0.6,11.9c-8.1,10.4-19,15.7-32.3,15.8c-0.2,0-0.5,0-0.8,0c-0.2,0-0.3,0-0.4,0
	c-5.7-1.4-11,0.1-15,4.5c-4.2,4.6-9.6,4.8-15.9,5.1c-1,0-2,0.1-2.9,0.1C121.2,151.3,118.3,151.1,115.3,151z M64,161.2
	c-2.5,2.1-5.4,4.1-8.6,5.9c-3,1.7-4.5,1.1-5.8-0.3c-1.2-1.2-2.5-2.1-3.7-2.9c-0.5-0.4-1.1-0.7-1.6-1.1l0.3-0.3
	c0.3-0.2,0.7-0.6,0.8-0.7c5.4-1.2,9.2-4.4,12.9-7.6c1.3-1.1,2.6-2.2,3.9-3.2c9.3-6.8,16.6-15.1,24.2-25.3c-0.9,3-1.8,6.1-3.2,8.8
	C77.3,146.8,71.4,155,64,161.2z M18.8,92.3c-4.6-3.1-6.1-7.7-4.3-13c2.9-8.4,9.4-13.7,19.4-15.8c3.1-0.6,6.2-0.9,9.4-0.9
	c6.1,0,12.8,1.1,20.6,3.5c1.7,0.5,3.4,0.9,5.1,1.3c1.7,0.4,3.2,0.7,4.8,1.2c3.8,1.1,7.6,2.4,11.4,3.6c2.5,0.8,5,1.6,7.5,2.4
	c2,0.6,5.8,1.7,9.7,2.8c-1,0.1-2.1,0.2-3.1,0.3c-2,0.2-4.1,0.4-6.1,0.7c-9.1,1.3-17.9,2.7-27.6,4.2c-1.2,0.2-2.3,0.6-3.2,1l-0.4,0.2
	c-0.8,0.4-1.4,1-1.6,1.3l-0.1,0.1c-0.6,0.6-0.9,1.6-0.7,2.4c0.2,0.9,0.8,1.6,1.6,2c0.4,0.2,1.2,0.7,2.3,0.6c1.5-0.2,2.9-0.4,4.1-0.7
	c0.7-0.1,1.3-0.3,2-0.5c0.8-0.2,1.6-0.5,2.3-0.6c3.8-0.5,7.6-0.9,11.4-1.3c2.1-0.2,4.2-0.4,6.3-0.7c2.2-0.2,4.4-0.5,6.6-0.7
	c3.8-0.4,7.7-0.9,11.5-1.3c-0.8,1-1.7,2-2.6,2.8c-7.4,5.9-13.6,12.8-19.7,19.6c-1.6,1.8-3.2,3.6-4.8,5.4c-0.9,0.6-2.5,1.9-6.5,5.2
	c-1.3,1.1-2.9,2.5-3.4,2.8c-1.1,0.5-2.1,1.1-3.2,1.7c-2.7,1.4-5.2,2.8-7.8,3.8c-7.2,2.7-13.1,3.4-18.7,2.2
	c-8.1-1.8-14.1-5.7-18.4-12.1c-2.7-4-3-8.5-1-14.2l0.2-0.4C23.2,96.8,23,95.2,18.8,92.3z M152.8,36.4c-2.8,3.4-5.9,6.7-8.8,9.8
	c-2.9,3.1-5.9,6.3-8.7,9.6c-3.4,4-6.4,8.3-9.4,12.5l-0.3,0.4c-1.2,1.6-2.5,2.5-3.7,2.4c-1.2-0.1-2.4-1.2-3.3-3.1
	c-3.7-7.7-6.6-14.1-7.7-21.3c-0.2-1.6-0.4-3.2-0.6-4.8c-0.2-1.4-0.4-2.9-0.6-4.3c-0.1-0.9-0.6-1.6-0.9-2c0-0.1-0.1-0.1-0.1-0.2
	c-0.5-0.8-1.4-1.4-2.4-1.4c0,0,0,0,0,0c-1,0-1.9,0.6-2.4,1.4l-0.1,0.2c-0.2,0.4-0.6,1-0.7,1.8l0,0.2c-0.2,1.4-0.4,2.8-0.5,4.3
	c-0.2,7.8-0.1,16.1,4.1,23.8c0.8,1.4,1.5,2.7,2.2,4.1c-1-0.3-2.2-0.6-3.6-0.9c-3.9-1-9.9-2.5-10.8-2.9c-3.2-1.7-6.3-3.6-9.4-5.4
	c-2.1-1.2-4.3-2.5-6.4-3.7c-6.1-3.4-11-7.6-15.1-12.8C58.8,38,60.9,32,64.5,28.6c4-3.8,8.2-6.7,12.8-8.6c7-2.9,14.3-3.5,21.6-1.7
	c4,1,7.2,0.3,9.9-2c4.9-4.2,11.1-5,17-5.5c6.5-0.5,13.4,0.7,21.3,3.8c5.7,2.2,8.6,5.4,9.1,9.9C156.8,28.8,155.6,33.1,152.8,36.4z
	 M134.5,78.2c1.9-0.9,3.8-1.7,5.7-2.5c1.4-0.6,2.8-1.2,4.2-1.9c2.7-1.2,5.4-2.4,8.1-3.7c0.7-0.3,1.1-0.8,1.4-1.1
	c0.6-0.6,1-1.5,0.9-2.3c-0.1-0.9-0.6-1.6-1.4-2l-0.1-0.1c-0.5-0.3-1.5-1-2.9-0.7c-0.6,0.2-1.2,0.3-1.8,0.5c-2.1,0.5-4.2,1-6.3,1.9
	c-2.2,0.9-4.3,1.9-6.3,3c-0.1,0.1-0.2,0.1-0.4,0.2c1.3-1.6,2.6-3.2,4-4.9l0.5-0.6c3.1-3.7,6.4-7.6,9.6-11.2
	c6.2-6.9,14.8-15.5,26-20.5c6.8-3,12.4-3.7,17.7-2c1.2,0.4,2.2,0.6,3.2,0.7c6.1,0.3,10.6,4,15,8c3.4,3.1,4.6,5.5,4,8.5
	c0,0.3-0.1,0.5-0.1,0.8c0,0.2,0,0.3-0.1,0.5c-1.2,4.7-0.3,6.6,4.2,8.7c6.1,2.8,10,9.6,8.9,15.2c-0.9,4.4-3.5,10.3-10.5,13.1
	c-3.3,1.3-6.2,2.1-9,2.6c-2.9,0.5-5.8,0.6-8.2,0.7c-0.9,0-1.7,0.1-2.4,0.1c-11,0.1-20.1-2.2-29.3-4.8c-10.2-2.9-21-5.7-32.5-5.8
	C136,78.3,135.2,78.3,134.5,78.2z"/>
<g>
	<path class="st0" d="M270.4,28.2c3.8-0.6,8.8-1.2,15.2-1.2c7.8,0,13.6,1.8,17.2,5.1c3.4,2.9,5.4,7.4,5.4,12.9
		c0,5.6-1.6,9.9-4.7,13.1c-4.2,4.5-11,6.8-18.8,6.8c-2.4,0-4.6-0.1-6.4-0.5V89h-7.9V28.2z M278.4,57.9c1.7,0.5,3.9,0.6,6.6,0.6
		c9.6,0,15.4-4.7,15.4-13.1c0-8.1-5.7-12-14.5-12c-3.5,0-6.1,0.3-7.5,0.6V57.9z"/>
	<path class="st0" d="M356.4,66.5c0,16.3-11.3,23.4-22,23.4c-12,0-21.2-8.8-21.2-22.7c0-14.8,9.7-23.4,21.9-23.4
		C347.8,43.8,356.4,53,356.4,66.5z M321.3,67c0,9.7,5.6,17,13.4,17c7.7,0,13.4-7.2,13.4-17.2c0-7.5-3.7-17-13.2-17
		C325.4,49.8,321.3,58.6,321.3,67z"/>
	<path class="st0" d="M365.4,80.8c2.4,1.6,6.6,3.2,10.6,3.2c5.8,0,8.6-2.9,8.6-6.6c0-3.8-2.3-5.9-8.2-8.1
		c-7.9-2.8-11.7-7.2-11.7-12.5c0-7.1,5.7-13,15.2-13c4.5,0,8.4,1.3,10.9,2.7l-2,5.8c-1.7-1.1-4.9-2.6-9-2.6c-4.7,0-7.4,2.7-7.4,6
		c0,3.6,2.6,5.3,8.4,7.5c7.7,2.9,11.6,6.8,11.6,13.3c0,7.8-6,13.2-16.5,13.2c-4.8,0-9.3-1.2-12.4-3L365.4,80.8z"/>
	<path class="st0" d="M412.3,32.1v12.7h11.5v6.1h-11.5v23.8c0,5.5,1.6,8.6,6,8.6c2.1,0,3.6-0.3,4.7-0.5l0.4,6
		c-1.6,0.6-4,1.1-7.1,1.1c-3.7,0-6.8-1.2-8.7-3.4c-2.3-2.4-3.1-6.3-3.1-11.5V50.9h-6.8v-6.1h6.8V34.2L412.3,32.1z"/>
	<path class="st0" d="M436.8,68.4c0.2,10.9,7.1,15.3,15.1,15.3c5.7,0,9.2-1,12.2-2.3l1.4,5.7c-2.8,1.3-7.7,2.7-14.7,2.7
		c-13.6,0-21.7-8.9-21.7-22.3s7.8-23.8,20.7-23.8c14.4,0,18.2,12.7,18.2,20.8c0,1.6-0.2,2.9-0.3,3.7H436.8z M460.3,62.6
		c0.1-5.1-2.1-13-11.1-13c-8.1,0-11.7,7.5-12.3,13H460.3z"/>
	<path class="st0" d="M308.3,94v53.4c0,3.9,0.1,8.4,0.4,11.4h-7.2l-0.4-7.7h-0.2c-2.5,4.9-7.8,8.7-15.1,8.7
		c-10.7,0-18.9-9-18.9-22.4c-0.1-14.7,9-23.7,19.8-23.7c6.8,0,11.3,3.2,13.3,6.8h0.2V94H308.3z M300.3,132.6c0-1-0.1-2.4-0.4-3.4
		c-1.2-5.1-5.6-9.3-11.6-9.3c-8.3,0-13.2,7.3-13.2,17.1c0,8.9,4.4,16.3,13,16.3c5.4,0,10.3-3.6,11.8-9.6c0.3-1.1,0.4-2.2,0.4-3.5
		V132.6z"/>
	<path class="st0" d="M346.1,158.8l-0.6-5.6h-0.3c-2.5,3.5-7.2,6.6-13.5,6.6c-8.9,0-13.5-6.3-13.5-12.7c0-10.7,9.5-16.5,26.5-16.4
		v-0.9c0-3.6-1-10.2-10-10.2c-4.1,0-8.4,1.3-11.5,3.3l-1.8-5.3c3.6-2.4,8.9-3.9,14.5-3.9c13.5,0,16.8,9.2,16.8,18.1v16.5
		c0,3.8,0.2,7.6,0.7,10.6H346.1z M344.9,136.3c-8.8-0.2-18.7,1.4-18.7,9.9c0,5.2,3.5,7.7,7.6,7.7c5.7,0,9.4-3.6,10.7-7.4
		c0.3-0.8,0.5-1.7,0.5-2.6V136.3z"/>
	<path class="st0" d="M393.1,104.1h-18.7v-6.8H420v6.8h-18.8v54.7h-8V104.1z"/>
	<path class="st0" d="M422.4,128.4c0-5.2-0.1-9.7-0.4-13.8h7l0.3,8.7h0.4c2-5.9,6.8-9.7,12.2-9.7c0.9,0,1.6,0.1,2.3,0.3v7.6
		c-0.8-0.2-1.6-0.3-2.7-0.3c-5.7,0-9.7,4.3-10.8,10.3c-0.2,1.1-0.4,2.4-0.4,3.7v23.5h-7.9V128.4z"/>
	<path class="st0" d="M455.8,138.2c0.2,10.9,7.1,15.3,15.1,15.3c5.7,0,9.2-1,12.2-2.3l1.4,5.7c-2.8,1.3-7.7,2.7-14.7,2.7
		c-13.6,0-21.7-8.9-21.7-22.3c0-13.3,7.8-23.8,20.7-23.8c14.4,0,18.2,12.7,18.2,20.8c0,1.6-0.2,2.9-0.3,3.7H455.8z M479.4,132.4
		c0.1-5.1-2.1-13-11.1-13c-8.1,0-11.7,7.5-12.3,13H479.4z"/>
	<path class="st0" d="M500.2,114.7l8.7,24.8c1.5,4,2.6,7.7,3.6,11.3h0.3c1-3.6,2.3-7.3,3.7-11.3l8.6-24.8h8.4L516,158.8h-7.7
		l-16.8-44.2H500.2z"/>
	<path class="st0" d="M580,136.4c0,16.3-11.3,23.4-22,23.4c-12,0-21.2-8.8-21.2-22.7c0-14.8,9.7-23.4,21.9-23.4
		C571.4,113.6,580,122.9,580,136.4z M545,136.8c0,9.7,5.6,17,13.4,17c7.7,0,13.4-7.2,13.4-17.2c0-7.5-3.7-17-13.2-17
		C549.1,119.7,545,128.4,545,136.8z"/>
</g>
</svg>
