<?xml version="1.0" encoding="utf-8"?>
<!-- Generator: Adobe Illustrator 17.1.0, SVG Export Plug-In . SVG Version: 6.00 Build 0)  -->
<!DOCTYPE svg PUBLIC "-//W3C//DTD SVG 1.1 Tiny//EN" "http://www.w3.org/Graphics/SVG/1.1/DTD/svg11-tiny.dtd" [
	<!ENTITY ns_extend "http://ns.adobe.com/Extensibility/1.0/">
	<!ENTITY ns_ai "http://ns.adobe.com/AdobeIllustrator/10.0/">
	<!ENTITY ns_graphs "http://ns.adobe.com/Graphs/1.0/">
	<!ENTITY ns_vars "http://ns.adobe.com/Variables/1.0/">
	<!ENTITY ns_imrep "http://ns.adobe.com/ImageReplacement/1.0/">
	<!ENTITY ns_sfw "http://ns.adobe.com/SaveForWeb/1.0/">
	<!ENTITY ns_custom "http://ns.adobe.com/GenericCustomNamespace/1.0/">
	<!ENTITY ns_adobe_xpath "http://ns.adobe.com/XPath/1.0/">
]>
<svg version="1.1" baseProfile="tiny" id="Layer_1" xmlns:x="&ns_extend;" xmlns:i="&ns_ai;" xmlns:graph="&ns_graphs;"
	 xmlns="http://www.w3.org/2000/svg" xmlns:xlink="http://www.w3.org/1999/xlink" x="0px" y="0px" viewBox="0 305.7 580 230.5"
	 xml:space="preserve">
<metadata>
	<sfw  xmlns="&ns_sfw;">
		<slices></slices>
		<sliceSourceBounds  width="577.8" height="230.5" x="1.4" y="305.8" bottomLeftOrigin="true"></sliceSourceBounds>
	</sfw>
</metadata>
<g>
	<g>
		<path fill="#07C457" d="M216.7,343.5c8.2,0,14.5,2.3,18.6,7c4.3,4.6,6.4,10.2,6.4,16.8c0,6.6-2.2,12.1-6.6,16.7
			c-4.4,4.6-10.9,6.8-19.4,6.8h-13.2v27.9h-11.7v-75.2H216.7z M216,380.1c9.1,0,13.8-5.9,13.8-12.9s-4.6-12.6-12.6-12.6h-14.8v25.5
			H216z"/>
		<path fill="#07C457" d="M251.3,370.9c5.5-5.6,12.4-8.4,20.9-8.4c8.4,0,15.4,2.8,20.8,8.4c5.5,5.6,8.2,12.3,8.2,20.4
			c0,8.1-2.7,15-8.2,20.6c-5.4,5.6-12.3,8.3-20.8,8.3c-8.4,0-15.4-2.7-20.9-8.3c-5.4-5.6-8.1-12.4-8.1-20.6
			C243.2,383.2,245.9,376.5,251.3,370.9z M284.7,378.3c-3.4-3.7-7.5-5.5-12.5-5.5s-9.2,1.8-12.6,5.5c-3.4,3.6-5.1,7.9-5.1,12.9
			c0,5.1,1.7,9.5,5.1,13c3.5,3.6,7.6,5.4,12.6,5.4s9.2-1.8,12.5-5.4c3.5-3.6,5.2-7.9,5.2-13C289.9,386.3,288.1,381.9,284.7,378.3z"
			/>
		<path fill="#07C457" d="M303.2,408.6l7.2-6.5c3.4,5.4,8.9,8.3,14,8.3c5.3,0,9.1-3.1,9.1-6.8c0-2.6-1.5-4.8-4.7-6.3
			c-0.9-0.5-3.2-1.4-6.6-2.7c-3.4-1.4-5.7-2.4-6.9-3.2c-5.8-3.1-8.8-7.5-8.8-13.5c0-4.6,1.7-8.3,5.1-11.3c3.5-3,8-4.5,13.6-4.5
			c7.8,0,13.8,2.8,18,8.4l-6.5,6.9c-3.3-4-7.2-6-12-6c-4.6,0-7.3,2.6-7.3,6c0,2.6,1.5,4.7,4.6,6l5.6,2.3c3.5,1.4,6,2.5,7.7,3.5
			c6.2,3.3,9.4,7.8,9.4,13.8c0,4.8-1.9,8.9-5.7,12.1c-3.8,3.3-8.8,4.9-14.8,4.9C315.8,420.1,307.8,416.2,303.2,408.6z"/>
		<path fill="#07C457" d="M387.9,415.5c-4.1,3.1-9.2,4.6-15.2,4.6c-11.9,0-18-7.4-18-21v-25.6h-9.5v-9.6h9.6v-19.4h11.1v19.4h18.9
			v9.6h-18.9v25.8c0,7,2.8,10.5,8.4,10.5c3,0,6.2-1,9.7-3.1L387.9,415.5z"/>
		<path fill="#07C457" d="M441.7,395.6h-42.8c1.6,8.5,7.6,14.3,18.2,14.3c6.2,0,13.7-2.3,18.6-5.9l4.7,8.2
			c-5.6,4.2-14.5,7.6-23.7,7.6c-20.6,0-29.4-14.3-29.4-28.8c0-8.2,2.5-15.1,7.7-20.5c5.2-5.4,12-8.1,20.2-8.1
			c7.8,0,14.3,2.4,19.3,7.4s7.5,11.7,7.5,20.3C442.1,391.8,442,393.6,441.7,395.6z M398.8,386.5h32c-0.9-8.6-7.3-14.2-15.6-14.2
			C406.8,372.2,400.5,377.9,398.8,386.5z"/>
		<path fill="#07C457" d="M231.3,435.6h11.3v77.1h-11.1v-7.6c-4.8,6-11,9-18.4,9c-7.8,0-14.5-2.7-19.6-8.2
			c-5.2-5.6-7.8-12.4-7.8-20.6c0-8,2.6-14.9,7.8-20.4c5.2-5.6,11.7-8.3,19.5-8.3c7.2,0,13.3,3,18.3,9V435.6z M227.2,472.2
			c-3.3-3.6-7.5-5.4-12.7-5.4s-9.5,1.8-12.7,5.4s-4.9,7.8-4.9,13c0,5.2,1.6,9.7,4.9,13.2c3.3,3.6,7.5,5.3,12.7,5.3s9.5-1.7,12.7-5.3
			c3.3-3.6,4.9-8,4.9-13.2C232.1,480.1,230.4,475.8,227.2,472.2z"/>
		<path fill="#07C457" d="M295.7,457.9h10.8v54.8h-10.8v-7.5c-5,5.9-11.3,8.9-18.7,8.9c-7.8,0-14.5-2.7-19.6-8.3
			c-5.2-5.6-7.7-12.5-7.7-20.8c0-8.2,2.5-15,7.7-20.4c5.2-5.4,11.8-8,19.6-8c7.4,0,13.7,3,18.7,9V457.9z M291.2,498.4
			c3.4-3.6,5-7.9,5-13.1c0-5.1-1.6-9.5-5-13s-7.5-5.4-12.7-5.4s-9.5,1.8-12.7,5.4s-4.9,7.9-4.9,13.1c0,5.2,1.6,9.6,4.9,13.1
			c3.3,3.6,7.5,5.3,12.7,5.3S287.8,501.9,291.2,498.4z"/>
		<path fill="#07C457" d="M350.4,448.9h-22v-11.4h55.9v11.4h-22v63.8h-11.9V448.9z"/>
		<path fill="#07C457" d="M382.4,512.7v-54.8H393v7.8c3.3-6.2,8.4-9.3,15.6-9.3c2.3,0,4.5,0.3,6.5,0.9l-1,10.9c-1.9-0.7-4-1-6-1
			c-8.5,0-14.6,5.9-14.6,17.4v28.1H382.4z"/>
		<path fill="#07C457" d="M467.7,489.6h-42.8c1.6,8.5,7.6,14.3,18.2,14.3c6.2,0,13.7-2.3,18.6-5.9l4.7,8.2
			c-5.6,4.2-14.5,7.6-23.7,7.6c-20.6,0-29.4-14.3-29.4-28.8c0-8.2,2.5-15.1,7.7-20.5c5.2-5.4,12-8.1,20.2-8.1
			c7.8,0,14.3,2.4,19.3,7.4s7.5,11.7,7.5,20.2C468.1,485.8,468,487.6,467.7,489.6z M424.9,480.5h32c-0.9-8.7-7.3-14.2-15.6-14.2
			C432.8,466.2,426.5,471.9,424.9,480.5z"/>
		<path fill="#07C457" d="M510.3,457.9h12.3l-24,54.7h-8.1l-24-54.7h12.4l15.8,39.2L510.3,457.9z"/>
		<path fill="#07C457" d="M529.3,464.9c5.5-5.6,12.4-8.4,20.9-8.4s15.4,2.8,20.8,8.4c5.5,5.6,8.2,12.3,8.2,20.4
			c0,8.1-2.7,15-8.2,20.6c-5.4,5.6-12.3,8.3-20.8,8.3s-15.4-2.7-20.9-8.3c-5.4-5.6-8.1-12.4-8.1-20.6
			C521.1,477.2,523.9,470.5,529.3,464.9z M562.7,472.3c-3.4-3.7-7.5-5.5-12.5-5.5s-9.2,1.8-12.6,5.5c-3.4,3.6-5.1,7.9-5.1,12.9
			c0,5.1,1.7,9.5,5.1,13c3.5,3.6,7.6,5.4,12.6,5.4s9.2-1.8,12.5-5.4c3.5-3.6,5.2-7.9,5.2-13C567.9,480.3,566.1,475.9,562.7,472.3z"
			/>
	</g>
	<path fill="#07C457" d="M125,425c21-0.3,34.2-22,24.7-40.6c-1.3-2.4-1.1-4.2,0-6.4c9.3-18.6-3.7-40.1-24.6-40.3
		c-3.2,0-4.2-1-4.2-4.2c-0.2-20.9-21.8-34.2-40.3-24.9c-2.6,1.3-4.5,1.1-6.9,0c-19.1-9-40,3.9-40.1,24.9c0,3.2-0.8,4.2-4.2,4.2
		c-21.2,0-34.3,21.3-24.9,40.3c1.1,2.4,1.3,4.2,0,6.6c-4.2,7.9-4.3,16.2-0.5,24.2c5,10.6,13.5,16.2,25.2,16.2c3.4,0,4.3,1.1,4.2,4.3
		c-0.2,1.9,0,4,0.5,5.8c3.7,15.2,18.1,24.4,33.5,20.9c3.4-0.8,4,0.2,3.9,3.2c-0.2,8.2,0,16.2,0,24.4s-0.2,16.2,0,24.4
		c0.3,15.6,13.2,28.6,27.6,28.1c3.4-0.2,5.5-1.8,6.1-5c0.5-3-2.1-5.6-5.3-6.1c-11.4-1.4-17.2-7.7-17.2-19.1c-0.2-15.6,0-31.3,0-46.9
		c0-2.9,0.5-4,3.7-3.2c18,4.3,34.5-8.5,34.7-27.1C121,425.8,122.1,425,125,425L125,425z M50.4,321c3.2-2.9,6.9-4.2,11.2-4
		c5-0.2,9,2.1,12.2,5.5c2.6,2.9,4.3,2.7,6.9,0c4.8-5.3,10.9-6.6,17.7-4.5c6.7,2.1,10.3,7.1,11.4,13.8c0.8,5.1-0.8,9.6-4.3,13.3
		c-8.7,8.7-17.5,17.3-26.2,26.2c-1.6,1.8-2.7,1.3-4.2-0.2c-8-8-16.4-15.9-24.4-24.1C42.5,338.5,42.5,328.3,50.4,321z M41.1,409.1
		c-5.1,5-12.4,6.1-18.6,3.2c-5.9-2.7-9.6-8.7-9.5-15.6c-0.2-4.8,1.8-8.7,5.1-11.9c3.5-3.7,3.5-3.7,0-7.4c-9.3-9.6-5.5-25,7.4-28.4
		c5.9-1.6,11.2,0,15.6,4.2c8.7,8.5,17.3,17.2,26,25.8c1.6,1.6,1.6,2.6,0,4.2C58.4,392,49.9,400.6,41.1,409.1z M108.5,435.5
		c-2.9,6.7-8.2,10-15.4,10.1c-4.5,0.2-8.2-1.6-11.4-4.5c-4.2-3.9-4.2-3.9-8.3-0.2c-10.1,8.8-24.6,4.8-28.1-7.5
		c-1.8-6.3,0-11.9,4.3-16.4c8.3-8.7,17-17,25.5-25.7c1.6-1.6,2.7-1.3,4.2,0.2c8.7,8.8,17.5,17.3,26,26.3
		C110.3,422.6,111.2,428.9,108.5,435.5L108.5,435.5z M86.7,383c-1.3-1.1-1-2.2,0.2-3.4c9-9,17.8-18.1,27.1-26.8
		c5.1-4.8,11.6-5.5,18-2.4c6.3,2.9,9.3,8.2,9.6,14.6c0,5.9-2.4,10.3-6.1,13.6c-2.4,2.1-2.1,3.4,0,5.6c8.8,9,7.9,21.3-1.9,27.3
		c-5.8,3.5-13.3,3.5-18.5-0.8C105,402.2,96.1,392.1,86.7,383z"/>
	<path fill="#07C457" d="M127.6,401.9c1.9-1,2.7-2.7,2.9-4.8c-0.3-1.9-1-3.5-2.4-5c-2.9-2.7-5.5-5.6-8.3-8.3
		c-2.1-1.9-2.4-3.2-0.2-5.3c3-2.7,5.8-5.6,8.7-8.7c2.7-2.9,2.9-6.1,0.8-8.5c-2.2-2.4-5.5-2.6-8.3,0.2c-6.1,5.8-11.9,11.7-17.8,17.7
		c-1,1-1.4,1.9-0.3,3c6.4,6.4,12.8,12.8,19.3,19.1C123.4,403.2,125.5,403,127.6,401.9L127.6,401.9z"/>
	<path fill="#07C457" d="M75.3,355.5c1.8,1.8,2.7,1.1,4.2-0.3c5.6-5.8,11.2-11.2,16.9-17c2.9-2.9,3-5.9,0.8-8.3s-5.8-2.4-8.7,0.5
		c-3,2.9-6.1,5.8-8.8,9c-1.8,1.9-3,1.8-4.7-0.2c-2.7-3-5.8-5.8-8.5-8.7c-1.4-1.4-3-2.6-5.1-2.4c-2.4,0.2-3.9,1.4-4.8,3.4
		c-1.1,2.6-0.2,4.7,1.6,6.4C63.7,343.8,69.7,349.6,75.3,355.5z"/>
	<path fill="#07C457" d="M79,406.9c-1-1-1.9-1.8-3.4-0.3c-6.3,6.3-12.5,12.4-18.6,18.8c-1.6,1.8-1.8,4-0.6,6.3c1.1,2.1,2.9,2.9,5,3
		c2.1-0.2,3.5-1.1,5-2.6c2.9-2.9,5.9-5.6,8.7-8.7c1.8-1.9,3-1.8,4.7,0c2.9,3.2,5.9,6.3,9.1,9.1c2.7,2.6,5.9,2.6,8.2,0.3
		c2.1-1.9,2.1-5.8-0.3-8.2C90.8,418.6,84.9,412.8,79,406.9z"/>
	<path fill="#07C457" d="M33.7,361.6c-1.1-1.1-2.6-1.9-4.2-1.9c-2.1,0.3-3.7,1.3-4.7,3c-1.1,2.2-0.8,4.5,0.8,6.3
		c1.6,1.9,3.4,3.5,5.1,5.3c6.7,6.7,6.7,6.7-0.2,13.8c-1.6,1.6-3.2,3-4.7,4.8c-2.4,2.7-2.4,5.9-0.2,8.2c2.4,2.4,5.3,2.4,8-0.3
		c5.9-5.8,11.7-11.7,17.7-17.5c1.4-1.4,1.8-2.4,0.2-3.9C45.6,373.5,39.6,367.6,33.7,361.6z"/>
</g>
</svg>
